:FULLY-SPECIFIED
:FORCE-ALL-JOINTS-BE-3DOF
:DEGREES
747
root 4.06846 17.1009 14.4581 -171.921 -17.416 172.364
lfemur -30.2024 3.96019 -13.4826
ltibia 36.9427 -0 0
lfoot -13.8377 -1.03676 -2.64211
ltoes 14.2335 -0 0
rfemur -25.1557 -32.7622 7.55485
rtibia 109.459 -0 0
rfoot 25.7016 3.13429 -0.251225
rtoes 30.3952 -0 0
lowerback 1.96677 6.77677 -1.52233
upperback -1.58022 9.00536 -2.55686
thorax -2.50874 4.52228 -2.14782
lowerneck -6.65234 -8.58618 -1.71328
upperneck -1.64694 -11.3515 4.86359
head 1.00345 -5.59357 1.45553
lclavicle 4.74101e-014 -5.36719e-014 0
lhumerus -54.7362 -12.6409 71.0604
lradius 55.0471 -0 0
lwrist 16.1382 0 0
lhand -26.6194 -6.50174 0.0669364
lfingers 7.12502 -0 0
lthumb -0.0525123 23.4499 0.0644003
rclavicle 4.74101e-014 -5.36719e-014 0
rhumerus 22.8489 38.9321 -63.6525
rradius 88.7004 -0 0
rwrist -0.443815 0 0
rhand -23.0525 -23.6304 0.385914
rfingers 7.12502 -0 0
rthumb 3.39114 -53.4903 0.377161
748
root 4.02016 16.9412 14.6481 -171.412 -13.8235 174.054
lfemur -31.6397 6.06969 -14.76
ltibia 40.0025 -0 0
lfoot -16.4822 0.567468 -2.57601
ltoes 13.8503 -0 0
rfemur -25.1092 -32.7996 9.40942
rtibia 107.112 -0 0
rfoot 24.6873 2.1814 -0.273784
rtoes 30.4714 -0 0
lowerback 2.2441 6.61892 -1.89058
upperback -1.42904 8.78283 -2.69403
thorax -2.54341 4.41962 -2.10094
lowerneck -6.47555 -8.67842 -1.76617
upperneck -1.62681 -11.4609 5.07793
head 1.00122 -5.63829 1.53354
lclavicle 4.74101e-014 -5.36719e-014 0
lhumerus -54.1237 -12.3117 73.4392
lradius 55.7128 -0 0
lwrist 15.6719 0 0
lhand -27.1164 -6.74451 0.0631567
lfingers 7.12502 -0 0
lthumb -0.532544 23.209 0.0608042
rclavicle 4.74101e-014 -5.36719e-014 0
rhumerus 19.9953 41.5075 -66.7882
rradius 88.5545 -0 0
rwrist 0.37226 0 0
rhand -22.2723 -22.8487 0.372853
rfingers 7.12502 -0 0
rthumb 4.14453 -52.6985 0.364339
749
root 3.97059 16.7868 14.8349 -170.719 -10.1004 175.933
lfemur -33.1095 8.10937 -16.0557
ltibia 43.0365 -0 0
lfoot -19.0661 2.15945 -2.43691
ltoes 13.4949 -0 0
rfemur -25.0564 -32.8044 11.2388
rtibia 104.73 -0 0
rfoot 23.6325 1.18258 -0.29297
rtoes 30.48 -0 0
lowerback 2.51794 6.45834 -2.25135
upperback -1.27977 8.55488 -2.8301
thorax -2.57738 4.31388 -2.05586
lowerneck -6.30066 -8.76483 -1.81769
upperneck -1.60837 -11.5629 5.28882
head 0.998268 -5.67957 1.61038
lclavicle 4.74101e-014 -5.36719e-014 0
lhumerus -53.4855 -12.0343 75.7682
lradius 56.379 -0 0
lwrist 15.2137 0 0
lhand -27.5909 -6.97913 0.0574815
lfingers 7.12502 -0 0
lthumb -0.990775 22.9762 0.0553861
rclavicle 4.74101e-014 -5.36719e-014 0
rhumerus 16.8305 43.8956 -70.1809
rradius 88.4071 -0 0
rwrist 1.17408 0 0
rhand -21.5114 -22.0855 0.34924
rfingers 7.12502 -0 0
rthumb 4.87929 -51.9257 0.3412
750
root 3.91957 16.6388 15.0184 -169.865 -6.304 177.934
lfemur -34.5909 10.0563 -17.3544
ltibia 45.9967 -0 0
lfoot -21.5553 3.7203 -2.23101
ltoes 13.1711 -0 0
rfemur -24.9926 -32.7816 13.0201
rtibia 102.334 -0 0
rfoot 22.5422 0.147903 -0.306977
rtoes 30.4037 -0 0
lowerback 2.78302 6.29835 -2.59907
upperback -1.13463 8.32631 -2.96358
thorax -2.60939 4.20735 -2.01396
lowerneck -6.12993 -8.8441 -1.86666
upperneck -1.59242 -11.6562 5.49326
head 0.994382 -5.71679 1.68493
lclavicle 4.74101e-014 -5.36719e-014 0
lhumerus -52.8436 -11.8059 78.0285
lradius 57.042 -0 0
lwrist 14.7681 0 0
lhand -28.0347 -7.20254 0.0502579
lfingers 7.12502 -0 0
lthumb -1.41939 22.7544 0.0484764
rclavicle 4.74101e-014 -5.36719e-014 0
rhumerus 13.3853 46.0607 -73.8084
rradius 88.2558 -0 0
rwrist 1.95328 0 0
rhand -20.7808 -21.3495 0.316245
rfingers 7.12502 -0 0
rthumb 5.58481 -51.1806 0.308893
751
root 3.8669 16.4984 15.198 -168.881 -2.48814 179.987
lfemur -36.0601 11.8894 -18.6377
ltibia 48.8347 -0 0
lfoot -23.9159 5.23208 -1.96767
ltoes 12.8828 -0 0
rfemur -24.9135 -32.736 14.7306
rtibia 99.9497 -0 0
rfoot 21.4211 -0.912685 -0.313516
rtoes 30.2248 -0 0
lowerback 3.03394 6.14213 -2.92811
upperback -0.995869 8.10194 -3.09298
thorax -2.63815 4.10232 -1.97663
lowerneck -5.96563 -8.91494 -1.91189
upperneck -1.57977 -11.739 5.68825
head 0.989354 -5.74929 1.75604
lclavicle 4.74101e-014 -5.36719e-014 0
lhumerus -52.2195 -11.6216 80.2012
lradius 57.698 -0 0
lwrist 14.3394 0 0
lhand -28.4398 -7.41165 0.0419285
lfingers 7.12502 -0 0
lthumb -1.81059 22.5466 0.0404965
rclavicle 4.74101e-014 -5.36719e-014 0
rhumerus 9.71042 47.9736 -77.628
rradius 88.0984 -0 0
rwrist 2.7015 0 0
rhand -20.0914 -20.649 0.275501
rfingers 7.12502 -0 0
rthumb 6.25052 -50.4717 0.26902
752
root 3.81239 16.3669 15.3734 -167.814 1.29855 -177.98
lfemur -37.4906 13.5895 -19.8839
ltibia 51.5024 -0 0
lfoot -26.1152 6.67811 -1.65909
ltoes 12.634 -0 0
rfemur -24.8155 -32.6728 16.348
rtibia 97.5996 -0 0
rfoot 20.2737 -1.98939 -0.309779
rtoes 29.926 -0 0
lowerback 3.26528 5.99277 -3.23281
upperback -0.865777 7.88655 -3.21674
thorax -2.66237 4.00106 -1.94527
lowerneck -5.81004 -8.97606 -1.95216
upperneck -1.57121 -11.8097 5.87076
head 0.982976 -5.77642 1.82256
lclavicle 4.74101e-014 -5.36719e-014 0
lhumerus -51.6346 -11.4746 82.2671
lradius 58.3435 -0 0
lwrist 13.9322 0 0
lhand -28.798 -7.60342 0.0330127
lfingers 7.12502 -0 0
lthumb -2.15657 22.356 0.031942
rclavicle 4.74101e-014 -5.36719e-014 0
rhumerus 5.87957 49.6143 -81.5736
rradius 87.9324 -0 0
rwrist 3.41039 0 0
rhand -19.4541 -19.9926 0.229043
rfingers 7.12502 -0 0
rthumb 6.86591 -49.8077 0.223579
753
root 3.75587 16.2454 15.5442 -166.72 5.01426 -176.048
lfemur -38.8531 15.1395 -21.0679
ltibia 53.9516 -0 0
lfoot -28.121 8.04307 -1.31984
ltoes 12.4285 -0 0
rfemur -24.6951 -32.597 17.8501
rtibia 95.3075 -0 0
rfoot 19.1046 -3.07256 -0.292416
rtoes 29.4898 -0 0
lowerback 3.47156 5.8533 -3.50743
upperback -0.746656 7.68492 -3.33329
thorax -2.68075 3.90587 -1.92127
lowerneck -5.66544 -9.02621 -1.98629
upperneck -1.56751 -11.8668 6.0378
head 0.975042 -5.79755 1.88336
lclavicle 4.74101e-014 -5.36719e-014 0
lhumerus -51.1096 -11.3564 84.2071
lradius 58.9748 -0 0
lwrist 13.5508 0 0
lhand -29.1013 -7.77477 0.0240844
lfingers 7.12502 -0 0
lthumb -2.44953 22.1854 0.0233605
rclavicle 4.74101e-014 -5.36719e-014 0
rhumerus 1.98881 50.9741 -85.5564
rradius 87.7555 -0 0
rwrist 4.07158 0 0
rhand -18.8797 -19.3884 0.179237
rfingers 7.12502 -0 0
rthumb 7.42051 -49.197 0.174888
